<svg width="14" height="8" viewBox="0 0 14 8" fill="none" xmlns="http://www.w3.org/2000/svg">
<path d="M7.00015 7.01328C10.5193 7.01328 13.4921 5.40753 13.4921 3.50655C13.4921 1.60575 10.5193 0 7.00015 0C3.48099 0 0.507904 1.60575 0.507904 3.50657C0.507904 5.40753 3.48102 7.01328 7.00015 7.01328ZM4.33295 2.1361C4.43941 1.98654 4.59197 1.85724 4.7914 1.74826C4.99067 1.63942 5.23317 1.55151 5.5188 1.48451C5.8044 1.41783 6.12667 1.37128 6.48508 1.34501V0.89631H7.54134V1.33227C7.86452 1.34376 8.19338 1.36782 8.52775 1.40399C8.86197 1.44063 9.1688 1.49064 9.44765 1.55435V2.41715C8.76571 2.27182 8.13034 2.19068 7.54134 2.17306V3.14045C7.82035 3.16955 8.09605 3.20807 8.36843 3.25588C8.64083 3.30385 8.88429 3.37337 9.09912 3.46505C9.3138 3.55658 9.48869 3.67642 9.62393 3.82459C9.75887 3.97259 9.82649 4.16287 9.82649 4.39533C9.82649 4.76729 9.62816 5.05934 9.23216 5.27119C8.83568 5.48336 8.27217 5.61547 7.54147 5.66767V6.11653H6.48522V5.68954C6.05129 5.68073 5.64287 5.65541 5.25975 5.61327C4.87679 5.57111 4.5591 5.5123 4.30653 5.43681V4.58298C4.47938 4.62372 4.64749 4.65925 4.81137 4.68992C4.97525 4.72028 5.14336 4.74638 5.31621 4.76825C5.4889 4.79012 5.67055 4.80741 5.86101 4.82061C6.05116 4.83367 6.25939 4.84168 6.48524 4.84452V3.89017C6.20655 3.86407 5.92975 3.82836 5.65516 3.78339C5.3804 3.73842 5.13364 3.67093 4.9144 3.58083C4.69516 3.49086 4.51696 3.37149 4.37982 3.22351C4.24236 3.0755 4.17394 2.88365 4.17394 2.64837C4.1738 2.45629 4.22681 2.28582 4.33295 2.1361Z" fill="#A7A7A7"/>
</svg>
